# xmcd
#
# Track frame offsets:
#	150
#	9528
#	20889
#	29356
#	40179
#	49162
#	57627
#	68157
#	79154
#	87051
#	97171
#	105818
#	116248
#
# Disc length: 1669 seconds
# Revision: 1
# Processed by: cddbd v1.5.2PL0 Copyright (c) Steve Scherf et al.
# Submitted via: dBpowerAMP V12.0
#
DISCID=aa06830d
DTITLE=Johnny Cash - Hymns By Johnny Cash CD05
DYEAR=1959
DGENRE=Country
TTITLE0=It Was Jesus
TTITLE1=I Saw a Man
TTITLE2=Are All the Children In
TTITLE3=The Old Account
TTITLE4=Lead Me Gently Home, Father
TTITLE5=Swing Low, Sweet Chariot
TTITLE6=Snow in His Hair
TTITLE7=Lead Me Father
TTITLE8=I Call Him
TTITLE9=These Things Shall Pass
TTITLE10=He'll Be a Friend
TTITLE11=God Will
TTITLE12=The Little Drummer Boy
EXTD=
EXTT0=
EXTT1=
EXTT2=
EXTT3=
EXTT4=
EXTT5=
EXTT6=
EXTT7=
EXTT8=
EXTT9=
EXTT10=
EXTT11=
EXTT12=
PLAYORDER=
